<svg width="24" height="24" viewBox="0 0 24 24" fill="none" xmlns="http://www.w3.org/2000/svg">
  <g clip-path="url(#clip0_183_1439)">
    <path
      d="M9 19.0001C4.7 20.4001 4.7 16.5001 3 16.0001M15 21.0001V17.5001C15 16.5001 15.1 16.1001 14.5 15.5001C17.3 15.2001 20 14.1001 20 9.50007C19.9988 8.30504 19.5325 7.15738 18.7 6.30007C19.0905 5.26204 19.0545 4.1117 18.6 3.10007C18.6 3.10007 17.5 2.80007 15.1 4.40007C13.0672 3.87066 10.9328 3.87066 8.9 4.40007C6.5 2.80007 5.4 3.10007 5.4 3.10007C4.94548 4.1117 4.90953 5.26204 5.3 6.30007C4.46745 7.15738 4.00122 8.30504 4 9.50007C4 14.1001 6.7 15.2001 9.5 15.5001C8.9 16.1001 8.9 16.7001 9 17.5001V21.0001"
      stroke="#1B37F2" stroke-width="1.75" stroke-linecap="round" stroke-linejoin="round"/>
  </g>
</svg>
