<svg width="24" height="24" viewBox="0 0 24 24" fill="none" xmlns="http://www.w3.org/2000/svg">
  <path
    d="M4 6.00012C4 5.46969 4.21071 4.96098 4.58579 4.58591C4.96086 4.21084 5.46957 4.00012 6 4.00012H18C18.5304 4.00012 19.0391 4.21084 19.4142 4.58591C19.7893 4.96098 20 5.46969 20 6.00012V18.0001C20 18.5306 19.7893 19.0393 19.4142 19.4143C19.0391 19.7894 18.5304 20.0001 18 20.0001H6C5.46957 20.0001 4.96086 19.7894 4.58579 19.4143C4.21071 19.0393 4 18.5306 4 18.0001V6.00012Z"
    stroke="#1B37F2" stroke-width="1.75" stroke-linecap="round" stroke-linejoin="round"/>
  <path d="M8 11.0001V16.0001" stroke="#1B37F2" stroke-width="1.75" stroke-linecap="round" stroke-linejoin="round"/>
  <path d="M8 8.00012V8.01012" stroke="#1B37F2" stroke-width="1.75" stroke-linecap="round" stroke-linejoin="round"/>
  <path d="M12 16.0001V11.0001" stroke="#1B37F2" stroke-width="1.75" stroke-linecap="round" stroke-linejoin="round"/>
  <path
    d="M16 16.0001V13.0001C16 12.4697 15.7893 11.961 15.4142 11.5859C15.0391 11.2108 14.5304 11.0001 14 11.0001C13.4696 11.0001 12.9609 11.2108 12.5858 11.5859C12.2107 11.961 12 12.4697 12 13.0001"
    stroke="#1B37F2" stroke-width="1.75" stroke-linecap="round" stroke-linejoin="round"/>

</svg>
